# xmcd
#
# Track frame offsets: 
#        150
#        12295
#        30827
#        47242
#        64080
#        76050
#        90600
#        106080
#        118300
#        133215
#        150027
#        165420
#        180530
#        195442
#        212937
#        227692
#        242910
#        258765
#        271887
#        283285
#        296937
#
# Disc length: 4128 seconds
#
# Revision: 3
# Processed by: cddbd v1.5.2PL0 Copyright (c) Steve Scherf et al.
# Submitted via: ExactAudioCopy v0.99pb4
#
DISCID=1d101e15
DTITLE=Frank Sinatra - The Complete Reprise Studio Recordings  CD3
DYEAR=1995
DGENRE=Jazz
TTITLE0=Misty
TTITLE1=Come Rain Or Come Shine
TTITLE2=Night And Day
TTITLE3=All Or Nothing At All
TTITLE4=Pocketful Of Miracles
TTITLE5=Name It And It's Yours
TTITLE6=The Song Is Ended
TTITLE7=All Allone
TTITLE8=Charmaine
TTITLE9=When I Lost You
TTITLE10=Remember
TTITLE11=Together
TTITLE12=The Girl Next Door
TTITLE13=Indiscreet
TTITLE14=What'll I Do ?
TTITLE15=Oh, How I Miss You Tonight
TTITLE16=Are You Lonesome Tonight ?
TTITLE17=Come Waltz With Me
TTITLE18=Everybody's Twistin'
TTITLE19=Nothing But The Best
TTITLE20=The Boys' Night Out
EXTD=YEAR: 1995
EXTT0=
EXTT1=
EXTT2=
EXTT3=
EXTT4=
EXTT5=
EXTT6=
EXTT7=
EXTT8=
EXTT9=
EXTT10=
EXTT11=
EXTT12=
EXTT13=
EXTT14=
EXTT15=
EXTT16=
EXTT17=
EXTT18=
EXTT19=
EXTT20=
PLAYORDER=
